<svg width="16" height="16" viewBox="0 0 16 16" fill="none" xmlns="http://www.w3.org/2000/svg">
<path d="M9.49992 14.2667C9.24437 14.5222 8.9277 14.65 8.54992 14.65C8.17214 14.65 7.85548 14.5222 7.59992 14.2667L1.73326 8.40001C1.61103 8.27779 1.5137 8.13334 1.44126 7.96668C1.36881 7.80001 1.33281 7.62223 1.33326 7.43334V2.66668C1.33326 2.30001 1.46392 1.98601 1.72526 1.72468C1.98659 1.46334 2.30037 1.3329 2.66659 1.33334H7.43326C7.62214 1.33334 7.79992 1.36957 7.96659 1.44201C8.13326 1.51446 8.2777 1.61157 8.39992 1.73334L14.2666 7.61668C14.5221 7.87223 14.6499 8.18623 14.6499 8.55868C14.6499 8.93112 14.5221 9.2449 14.2666 9.50001L9.49992 14.2667ZM4.33326 5.33334C4.61103 5.33334 4.84726 5.23601 5.04192 5.04134C5.23659 4.84668 5.3337 4.61068 5.33326 4.33334C5.33326 4.05557 5.23592 3.81934 5.04126 3.62468C4.84659 3.43001 4.61059 3.3329 4.33326 3.33334C4.05548 3.33334 3.81926 3.43068 3.62459 3.62534C3.42992 3.82001 3.33281 4.05601 3.33326 4.33334C3.33326 4.61112 3.43059 4.84735 3.62526 5.04201C3.81992 5.23668 4.05592 5.33379 4.33326 5.33334Z" fill="#8B8686"/>
</svg>
