<svg width="16" height="16" viewBox="0 0 16 16" fill="none" xmlns="http://www.w3.org/2000/svg">
<g id="material-symbols:shopping-cart">
<path id="Vector" d="M4.66669 14.6666C4.30002 14.6666 3.98602 14.536 3.72469 14.2746C3.46335 14.0133 3.33291 13.6995 3.33335 13.3333C3.33335 12.9666 3.46402 12.6526 3.72535 12.3913C3.98669 12.13 4.30046 11.9995 4.66669 12C5.03335 12 5.34735 12.1306 5.60869 12.392C5.87002 12.6533 6.00046 12.9671 6.00002 13.3333C6.00002 13.7 5.86935 14.014 5.60802 14.2753C5.34669 14.5366 5.03291 14.6671 4.66669 14.6666ZM11.3334 14.6666C10.9667 14.6666 10.6527 14.536 10.3914 14.2746C10.13 14.0133 9.99958 13.6995 10 13.3333C10 12.9666 10.1307 12.6526 10.392 12.3913C10.6534 12.13 10.9671 11.9995 11.3334 12C11.7 12 12.014 12.1306 12.2754 12.392C12.5367 12.6533 12.6671 12.9671 12.6667 13.3333C12.6667 13.7 12.536 14.014 12.2747 14.2753C12.0134 14.5366 11.6996 14.6671 11.3334 14.6666ZM3.46669 2.66665H13.3C13.5556 2.66665 13.75 2.78065 13.8834 3.00865C14.0167 3.23665 14.0222 3.46709 13.9 3.69998L11.5334 7.96665C11.4111 8.18887 11.2471 8.36109 11.0414 8.48331C10.8356 8.60554 10.6107 8.66665 10.3667 8.66665H5.40002L4.66669 9.99998H12.6667V11.3333H4.66669C4.16669 11.3333 3.78891 11.1138 3.53335 10.6746C3.2778 10.2355 3.26669 9.79954 3.50002 9.36665L4.40002 7.73331L2.00002 2.66665H0.666687V1.33331H2.83335L3.46669 2.66665Z" fill="#8B8686"/>
</g>
</svg>
