<svg width="16" height="16" viewBox="0 0 16 16" fill="none" xmlns="http://www.w3.org/2000/svg">
<g id="mdi:user">
<path id="Vector" d="M8.00002 2.66666C8.70726 2.66666 9.38554 2.94761 9.88564 3.4477C10.3857 3.9478 10.6667 4.62608 10.6667 5.33332C10.6667 6.04057 10.3857 6.71884 9.88564 7.21894C9.38554 7.71904 8.70726 7.99999 8.00002 7.99999C7.29278 7.99999 6.6145 7.71904 6.1144 7.21894C5.61431 6.71884 5.33335 6.04057 5.33335 5.33332C5.33335 4.62608 5.61431 3.9478 6.1144 3.4477C6.6145 2.94761 7.29278 2.66666 8.00002 2.66666ZM8.00002 9.33332C10.9467 9.33332 13.3334 10.5267 13.3334 12V13.3333H2.66669V12C2.66669 10.5267 5.05335 9.33332 8.00002 9.33332Z" fill="#8B8686"/>
</g>
</svg>
