<svg width="16" height="22" viewBox="0 0 16 22" fill="none" xmlns="http://www.w3.org/2000/svg">
<g id="fa-solid:percentage">
<path id="Vector" d="M4.55207 7.55207C5.59332 6.51082 5.59332 4.82207 4.55207 3.78082C3.51082 2.73957 1.82207 2.73957 0.780815 3.78082C-0.260435 4.82207 -0.260435 6.51082 0.780815 7.55207C1.82248 8.59373 3.51082 8.59373 4.55207 7.55207ZM15.2187 14.4475C14.1775 13.4062 12.4887 13.4062 11.4475 14.4475C10.4062 15.4887 10.4062 17.1775 11.4475 18.2187C12.4887 19.26 14.1775 19.26 15.2187 18.2187C16.2604 17.1775 16.2604 15.4891 15.2187 14.4475ZM15.1379 4.80457L14.1954 3.86207C13.6746 3.34123 12.8304 3.34123 12.31 3.86207L0.862065 15.31C0.341232 15.8308 0.341232 16.675 0.862065 17.1954L1.80457 18.1379C2.3254 18.6587 3.16957 18.6587 3.68998 18.1379L15.1379 6.68998C15.6587 6.16957 15.6587 5.3254 15.1379 4.80457Z" fill="#E75854"/>
</g>
</svg>
