<svg width="24" height="24" viewBox="0 0 24 24" fill="none" xmlns="http://www.w3.org/2000/svg">
<g id="material-symbols:star-rate-rounded">
<path id="Vector" d="M12 17.3L8.3 20.125C8.11667 20.275 7.91667 20.346 7.7 20.338C7.48333 20.33 7.29167 20.2673 7.125 20.15C6.95833 20.0333 6.82933 19.875 6.738 19.675C6.64667 19.475 6.64233 19.2583 6.725 19.025L8.15 14.4L4.525 11.825C4.325 11.6917 4.2 11.5167 4.15 11.3C4.1 11.0833 4.10834 10.8833 4.175 10.7C4.24167 10.5167 4.35834 10.354 4.525 10.212C4.69167 10.07 4.89167 9.99934 5.125 10H9.6L11.05 5.20001C11.1333 4.96668 11.2627 4.78734 11.438 4.66201C11.6133 4.53668 11.8007 4.47434 12 4.47501C12.2 4.47501 12.3877 4.53768 12.563 4.66301C12.7383 4.78834 12.8673 4.96734 12.95 5.20001L14.4 10H18.875C19.1083 10 19.3083 10.071 19.475 10.213C19.6417 10.355 19.7583 10.5173 19.825 10.7C19.8917 10.8833 19.9 11.0833 19.85 11.3C19.8 11.5167 19.675 11.6917 19.475 11.825L15.85 14.4L17.275 19.025C17.3583 19.2583 17.3543 19.475 17.263 19.675C17.1717 19.875 17.0423 20.0333 16.875 20.15C16.7083 20.2667 16.5167 20.3293 16.3 20.338C16.0833 20.3467 15.8833 20.2757 15.7 20.125L12 17.3Z" fill="#E7AC15"/>
</g>
</svg>
