<svg width="16" height="16" viewBox="0 0 16 16" fill="none" xmlns="http://www.w3.org/2000/svg">
<path d="M1.33325 13.3334V11.4667C1.33325 11.0889 1.4277 10.7416 1.61659 10.4247C1.80547 10.1078 2.06659 9.86624 2.39992 9.70002C3.06659 9.36669 3.75814 9.11113 4.47459 8.93335C5.19103 8.75558 5.9217 8.66669 6.66659 8.66669C6.94436 8.66669 7.22214 8.68624 7.49992 8.72535C7.7777 8.76447 8.05547 8.81158 8.33325 8.86669V9.91669C7.83325 10.1611 7.43036 10.4834 7.12459 10.8834C6.81881 11.2834 6.66614 11.8056 6.66659 12.45V13.3334H1.33325ZM7.99992 13.3334V12.4C7.99992 12.1334 8.06947 11.886 8.20859 11.658C8.3477 11.43 8.54481 11.2662 8.79992 11.1667C9.19992 11 9.61392 10.8749 10.0419 10.7914C10.4699 10.7078 10.9004 10.6662 11.3333 10.6667C11.7666 10.6667 12.1973 10.7085 12.6253 10.792C13.0533 10.8756 13.467 11.0005 13.8666 11.1667C14.1221 11.2667 14.3195 11.4307 14.4586 11.6587C14.5977 11.8867 14.667 12.1338 14.6666 12.4V13.3334H7.99992ZM11.3333 10C10.8666 10 10.4721 9.83891 10.1499 9.51669C9.8277 9.19446 9.66659 8.80002 9.66659 8.33335C9.66659 7.86669 9.8277 7.47224 10.1499 7.15002C10.4721 6.8278 10.8666 6.66669 11.3333 6.66669C11.7999 6.66669 12.1944 6.8278 12.5166 7.15002C12.8388 7.47224 12.9999 7.86669 12.9999 8.33335C12.9999 8.80002 12.8388 9.19446 12.5166 9.51669C12.1944 9.83891 11.7999 10 11.3333 10ZM6.66659 8.00002C5.93325 8.00002 5.30547 7.73891 4.78325 7.21669C4.26103 6.69446 3.99992 6.06669 3.99992 5.33335C3.99992 4.60002 4.26103 3.97224 4.78325 3.45002C5.30547 2.9278 5.93325 2.66669 6.66659 2.66669C7.39992 2.66669 8.0277 2.9278 8.54992 3.45002C9.07214 3.97224 9.33325 4.60002 9.33325 5.33335C9.33325 6.06669 9.07214 6.69446 8.54992 7.21669C8.0277 7.73891 7.39992 8.00002 6.66659 8.00002Z" fill="#8B8686"/>
</svg>
